<svg xmlns="http://www.w3.org/2000/svg" viewBox="0 0 679.1 334.9"><style>.st3{fill:#fb4f14}</style><path d="M352.2 47.4h-43.5l10.9 10.9v36.1H352c10.4 0 16.9-11.2 16.9-24.8.1-12.7-6.4-22.2-16.7-22.2z" fill="none"></path><path d="M350.3 16.8h-76v137.8c26.1-13.1 39.6-20.6 45.2-29.5l.1-.1h28.9c35.7 0 63.8-19.8 63.8-55 .1-35.4-24.8-53.2-62-53.2zm1.8 77.6h-32.4V58.3l-10.9-10.9h43.5c10.3 0 16.8 9.5 16.8 22.2-.1 13.6-6.6 24.8-17 24.8z" fill="#002169"></path><linearGradient id="SVGID_1_" gradientUnits="userSpaceOnUse" x1="318.39" y1="124.386" x2="320.928" y2="125.656"><stop offset="0" stop-color="#fb4f14"></stop><stop offset=".257" stop-color="#f94e14"></stop><stop offset=".382" stop-color="#f14c15"></stop><stop offset=".478" stop-color="#e44716"></stop><stop offset=".56" stop-color="#d24117"></stop><stop offset=".633" stop-color="#b93919"></stop><stop offset=".699" stop-color="#9c2f1b"></stop><stop offset=".759" stop-color="#79231d"></stop><stop offset=".773" stop-color="#70201e"></stop><stop offset=".808" stop-color="#75221e"></stop><stop offset=".847" stop-color="#82261d"></stop><stop offset=".889" stop-color="#992e1b"></stop><stop offset=".931" stop-color="#b83819"></stop><stop offset=".975" stop-color="#e04616"></stop><stop offset="1" stop-color="#fb4f14"></stop></linearGradient><path fill="url(#SVGID_1_)" d="M319.7 125z"></path><path class="st3" d="M56.8 326.4v-42.1h9v4.2c1.8-2.8 4.8-5.1 9.3-5.1 2.8 0 5 .8 6.3 2l-4.7 8.2c-1-.6-2.3-1.1-3.8-1.1-4.7 0-6.9 3.9-6.9 8.6v25.4h-9.2zM164.6 286.2c-1.7-6.1-6.8-9.8-14.6-9.8-7.5 0-12.6 2.8-12.6 7.4 0 5.3 6.4 7 15.3 8.3 11.8 1.9 22.1 5.3 22.1 17 0 12.1-11 18-23.8 18-11.8 0-22.8-5.4-23.8-18.3h9.6c1.2 5.9 6.7 9.9 14.8 9.9 7.3 0 13.3-3 13.3-8.7 0-6.8-7.7-8.2-16.4-9.5-11-1.6-20.9-4.4-20.9-15.4 0-10.5 9.5-17.2 22.9-17.2 12.8 0 22.2 6.7 23.6 18.2h-9.5zM310.7 326.4v-6c-3.3 4-8.2 6.7-14.1 6.7-11.7 0-20.9-9.4-20.9-21.8s9.3-21.8 21.1-21.8c5.7 0 10.4 2.5 13.6 6.3v-21.1h9.3v57.8h-9zm-.2-21.1c0-7.6-5.7-13.3-12.7-13.3-7.1 0-12.8 5.9-12.8 13.3 0 7.5 5.8 13.3 12.8 13.3 7 0 12.7-5.7 12.7-13.3zM471.3 326.4v-26.7c0-4.8-3.2-8-8.2-8-5.3 0-8.8 3.5-8.8 7.9v26.8H445v-42.1h9v5.2c1.6-2.5 5.5-6 12-6 9.3 0 14.6 5.9 14.6 14.9v28.1h-9.3zM540.9 326.4v-5.2c-1.6 2.5-5.5 5.9-12 5.9-9.3 0-14.6-5.8-14.6-14.7v-28.1h9.3v26.8c0 4.9 3.2 7.8 8.2 7.8 5.2 0 8.8-3.3 8.8-7.7v-26.9h9.3v42.1h-9zM559.6 326.4v-42.1h9v4.2c1.8-2.8 4.8-5.1 9.3-5.1 2.8 0 5 .8 6.3 2l-4.7 8.2c-1-.6-2.3-1.1-3.8-1.1-4.7 0-6.9 3.9-6.9 8.6v25.4h-9.2zM660.3 296.7c-1-3.9-4.8-5.7-10.6-5.7-5.1 0-8.9 1.4-8.9 4.8 0 8.9 29.2.4 29.2 17.5 0 8.9-8.7 13.8-19.7 13.8-9.8 0-18.2-3.7-19.4-13.8h9.1c1.4 4.8 5.3 6.3 10.9 6.3 5.9 0 9.9-1.9 9.9-5.4 0-9.3-29.3-.4-29.3-17.4 0-8.2 7.2-13.3 18.9-13.3 9.1 0 17.8 3.6 18.9 13.2h-9zM506.2 318.2c-4.1 0-5.1-1.5-5.1-5.5V296l-3.6-3.6h10.8v-8.1h-7.2v-10.5h-9.3v10.5H486v8.1h5.9v21.8c0 8.6 3.1 12.2 11.8 12.2h4.8v-8.2h-2.3zM30.2 268.7H4.6v57.8h9.7v-21.8H30c11.6 0 20.3-7.2 20.3-18.3 0-10.8-7.7-17.7-20.1-17.7zm-.6 27.8H14.3v-15.8l-3.6-3.6h19.1c6.2 0 10.6 4.2 10.6 9.4 0 5.7-4.5 10-10.8 10zM123.4 305.4c0-12.7-9.2-21.9-21.6-21.9-12.5 0-21.9 9.1-21.9 21.9s8.9 21.7 21.7 21.7c10.4 0 18.3-5.7 21.1-14.4h-9.8c-2.2 3.8-6.1 6.2-11.1 6.2-6.5 0-11.5-4.2-12.2-11.1h33.7c.1-.8.1-1.7.1-2.4zm-29.5-3.8l-4.6 3.5s-.3-1 .2-3.5c1.3-6.2 6-10 12.1-10 5.9 0 11 3.9 11.8 10H93.9zM222.2 305.4c0-12.7-9.2-21.9-21.6-21.9-12.5 0-21.9 9.1-21.9 21.9s8.9 21.7 21.7 21.7c10.4 0 18.3-5.7 21.1-14.4h-9.8c-2.2 3.8-6.1 6.2-11.1 6.2-6.5 0-11.5-4.2-12.2-11.1H222c.2-.8.2-1.7.2-2.4zm-29.4-3.8l-4.6 3.5s-.3-1 .2-3.5c1.3-6.2 6-10 12.1-10 5.9 0 11 3.9 11.8 10h-19.5zM270.7 305.4c0-12.7-9.2-21.9-21.6-21.9-12.5 0-21.9 9.1-21.9 21.9s8.9 21.7 21.7 21.7c10.4 0 18.3-5.7 21.1-14.4h-9.8c-2.2 3.8-6.1 6.2-11.1 6.2-6.5 0-11.5-4.2-12.2-11.1h33.7c.1-.8.1-1.7.1-2.4zm-29.4-3.8l-4.6 3.5s-.3-1 .2-3.5c1.3-6.2 6-10 12.1-10 5.9 0 11 3.9 11.8 10h-19.5zM437.6 305.4c0-12.7-9.2-21.9-21.6-21.9-12.5 0-21.9 9.1-21.9 21.9s8.9 21.7 21.7 21.7c10.4 0 18.3-5.7 21.1-14.4h-9.8c-2.2 3.8-6.1 6.2-11.1 6.2-6.5 0-11.5-4.2-12.2-11.1h33.7c.1-.8.1-1.7.1-2.4zm-29.4-3.8l-4.6 3.5s-.3-1 .2-3.5c1.3-6.2 6-10 12.1-10 5.9 0 11 3.9 11.8 10h-19.5zM626.1 305.4c0-12.7-9.2-21.9-21.6-21.9-12.5 0-21.9 9.1-21.9 21.9s8.9 21.7 21.7 21.7c10.4 0 18.3-5.7 21.1-14.4h-9.8c-2.2 3.8-6.1 6.2-11.1 6.2-6.5 0-11.5-4.2-12.2-11.1H626c.1-.8.1-1.7.1-2.4zm-29.4-3.8l-4.6 3.5s-.3-1 .2-3.5c1.3-6.2 6-10 12.1-10 5.9 0 11 3.9 11.8 10h-19.5zM384.6 268.7l-17.4 44.4-1.4 3.6v-5.9l-16.2-42.1h-10.1l22.8 57.7h8.8l23.3-57.7z"></path><linearGradient id="SVGID_2_" gradientUnits="userSpaceOnUse" x1="262.174" y1="154.26" x2="300.882" y2="173.625"><stop offset="0" stop-color="#fb4f14"></stop><stop offset=".257" stop-color="#f94e14"></stop><stop offset=".382" stop-color="#f14c15"></stop><stop offset=".478" stop-color="#e44716"></stop><stop offset=".56" stop-color="#d24117"></stop><stop offset=".633" stop-color="#b93919"></stop><stop offset=".699" stop-color="#9c2f1b"></stop><stop offset=".759" stop-color="#79231d"></stop><stop offset=".773" stop-color="#70201e"></stop><stop offset=".808" stop-color="#75221e"></stop><stop offset=".847" stop-color="#82261d"></stop><stop offset=".889" stop-color="#992e1b"></stop><stop offset=".931" stop-color="#b83819"></stop><stop offset=".975" stop-color="#e04616"></stop><stop offset="1" stop-color="#fb4f14"></stop></linearGradient><path d="M236.8 173.4c26.7 14.6 37.6 26.6 37.6 44.9l45.3-93.3c-7.8 12.5-31.1 22.2-82.9 48.4z" fill="url(#SVGID_2_)"></path></svg>