<svg width="209" height="45" viewBox="0 0 209 45" fill="none" xmlns="http://www.w3.org/2000/svg">
<rect y="13" width="31.5152" height="32" fill="#EA7024"/>
<path d="M47.5288 42.3636H52.9748V31.8551H53.141C53.8952 33.4915 55.5444 35.3196 58.7148 35.3196C63.1893 35.3196 66.6793 31.7784 66.6793 25.2074C66.6793 18.4574 63.0359 15.108 58.7276 15.108C55.4421 15.108 53.8697 17.0639 53.141 18.6619H52.8981V15.3636H47.5288V42.3636ZM52.8597 25.1818C52.8597 21.679 54.3427 19.4418 56.989 19.4418C59.6864 19.4418 61.1183 21.7812 61.1183 25.1818C61.1183 28.608 59.6609 30.9858 56.989 30.9858C54.3683 30.9858 52.8597 28.6847 52.8597 25.1818ZM79.2589 35.3835C84.1168 35.3835 87.3896 33.0185 88.1566 29.375L83.1197 29.0426C82.57 30.5384 81.1637 31.3182 79.3484 31.3182C76.6254 31.3182 74.8995 29.5156 74.8995 26.5881V26.5753H88.2717V25.0795C88.2717 18.4062 84.2319 15.108 79.0415 15.108C73.2631 15.108 69.5174 19.2116 69.5174 25.2713C69.5174 31.4972 73.212 35.3835 79.2589 35.3835ZM74.8995 23.2003C75.0146 20.9631 76.7148 19.1733 79.131 19.1733C81.4961 19.1733 83.1325 20.8608 83.1452 23.2003H74.8995ZM100.775 35.3835C105.632 35.3835 108.905 33.0185 109.672 29.375L104.635 29.0426C104.086 30.5384 102.679 31.3182 100.864 31.3182C98.141 31.3182 96.4151 29.5156 96.4151 26.5881V26.5753H109.787V25.0795C109.787 18.4062 105.748 15.108 100.557 15.108C94.7788 15.108 91.033 19.2116 91.033 25.2713C91.033 31.4972 94.7276 35.3835 100.775 35.3835ZM96.4151 23.2003C96.5302 20.9631 98.2305 19.1733 100.647 19.1733C103.012 19.1733 104.648 20.8608 104.661 23.2003H96.4151ZM113.341 35H118.787V23.8906C118.787 21.4744 120.551 19.8125 122.955 19.8125C123.709 19.8125 124.745 19.9403 125.256 20.1065V15.2741C124.77 15.1591 124.093 15.0824 123.543 15.0824C121.344 15.0824 119.542 16.3608 118.826 18.7898H118.621V15.3636H113.341V35ZM146.976 15.3636H141.211L137.145 29.4134H136.941L132.863 15.3636H127.11L133.975 35H140.111L146.976 15.3636ZM158.044 35.3835C162.902 35.3835 166.175 33.0185 166.942 29.375L161.905 29.0426C161.355 30.5384 159.949 31.3182 158.134 31.3182C155.411 31.3182 153.685 29.5156 153.685 26.5881V26.5753H167.057V25.0795C167.057 18.4062 163.017 15.108 157.827 15.108C152.048 15.108 148.303 19.2116 148.303 25.2713C148.303 31.4972 151.997 35.3835 158.044 35.3835ZM153.685 23.2003C153.8 20.9631 155.5 19.1733 157.916 19.1733C160.281 19.1733 161.918 20.8608 161.93 23.2003H153.685ZM186.949 20.9631C186.463 17.3452 183.548 15.108 178.588 15.108C173.564 15.108 170.253 17.4347 170.266 21.2188C170.253 24.1591 172.107 26.0639 175.942 26.831L179.342 27.5085C181.055 27.8537 181.835 28.4801 181.861 29.4645C181.835 30.6278 180.57 31.4588 178.665 31.4588C176.722 31.4588 175.43 30.6278 175.098 29.0298L169.741 29.3111C170.253 33.0696 173.449 35.3835 178.652 35.3835C183.74 35.3835 187.384 32.7884 187.396 28.9148C187.384 26.0767 185.53 24.3764 181.72 23.5966L178.166 22.8807C176.338 22.4844 175.661 21.858 175.673 20.9119C175.661 19.7358 176.99 18.9688 178.678 18.9688C180.57 18.9688 181.695 20.0043 181.963 21.2699L186.949 20.9631ZM201.27 15.3636H197.576V10.6591H192.13V15.3636H189.445V19.4545H192.13V29.6818C192.104 33.5298 194.725 35.4347 198.675 35.2685C200.081 35.2173 201.078 34.9361 201.628 34.7571L200.772 30.7045C200.503 30.7557 199.928 30.8835 199.417 30.8835C198.33 30.8835 197.576 30.4744 197.576 28.9659V19.4545H201.27V15.3636Z" fill="#414141"/>
<path d="M19.5391 22.6368L27.0953 22.076C27.6611 22.034 28.168 22.3255 28.2275 22.7274L29.0299 28.0944C29.1752 29.0664 27.5935 29.6761 26.523 29.0606L21.0254 25.8992L18.7315 24.5801C17.661 23.9645 18.1707 22.7384 19.5391 22.6368Z" fill="white"/>
<path d="M26.1888 24.7822C25.2933 24.1486 24.0253 24.3203 23.3553 25.1671L18.6589 31.5328L12.0213 26.8104C11.1306 26.1768 9.8641 26.3455 9.19408 27.1879C9.19247 27.1909 9.19094 27.1923 9.18781 27.1953L3.41127 35.0412C2.73658 35.8806 2.91035 37.0797 3.79796 37.7178C4.13764 37.9621 4.55093 38.0982 4.97677 38.1056V38.15C5.59511 38.1338 6.17278 37.8495 6.54227 37.3802L11.2387 31.0146L17.8762 35.737C18.767 36.3706 20.0335 36.2019 20.7035 35.3595C20.705 35.3565 20.7066 35.3551 20.7098 35.3521L26.5959 27.4617C27.2658 26.6149 27.0842 25.4158 26.1888 24.7822Z" fill="white"/>
</svg>
