<svg width="182" height="34" viewBox="0 0 182 34" fill="none" xmlns="http://www.w3.org/2000/svg">
<rect y="2" width="31.5152" height="32" fill="#EA7024"/>
<path d="M46.0192 27.9091H49.6499V20.9034H49.7607C50.2635 21.9943 51.3629 23.2131 53.4766 23.2131C56.4595 23.2131 58.7862 20.8523 58.7862 16.4716C58.7862 11.9716 56.3572 9.73864 53.4851 9.73864C51.2947 9.73864 50.2464 11.0426 49.7607 12.108H49.5987V9.90909H46.0192V27.9091ZM49.5732 16.4545C49.5732 14.1193 50.5618 12.6278 52.326 12.6278C54.1243 12.6278 55.0788 14.1875 55.0788 16.4545C55.0788 18.7386 54.1072 20.3239 52.326 20.3239C50.5788 20.3239 49.5732 18.7898 49.5732 16.4545ZM67.1726 23.2557C70.4112 23.2557 72.593 21.679 73.1044 19.25L69.7464 19.0284C69.38 20.0256 68.4425 20.5455 67.2322 20.5455C65.4169 20.5455 64.2663 19.3438 64.2663 17.392V17.3835H73.1811V16.3864C73.1811 11.9375 70.4879 9.73864 67.0277 9.73864C63.1754 9.73864 60.6783 12.4744 60.6783 16.5142C60.6783 20.6648 63.1413 23.2557 67.1726 23.2557ZM64.2663 15.1335C64.343 13.642 65.4766 12.4489 67.0874 12.4489C68.6641 12.4489 69.755 13.5739 69.7635 15.1335H64.2663ZM81.5163 23.2557C84.755 23.2557 86.9368 21.679 87.4482 19.25L84.0902 19.0284C83.7237 20.0256 82.7862 20.5455 81.576 20.5455C79.7607 20.5455 78.6101 19.3438 78.6101 17.392V17.3835H87.5249V16.3864C87.5249 11.9375 84.8317 9.73864 81.3714 9.73864C77.5192 9.73864 75.022 12.4744 75.022 16.5142C75.022 20.6648 77.4851 23.2557 81.5163 23.2557ZM78.6101 15.1335C78.6868 13.642 79.8203 12.4489 81.4311 12.4489C83.0078 12.4489 84.0987 13.5739 84.1072 15.1335H78.6101ZM89.8942 23H93.5249V15.5938C93.5249 13.983 94.701 12.875 96.3033 12.875C96.8061 12.875 97.4964 12.9602 97.8374 13.071V9.84943C97.5135 9.77273 97.0618 9.72159 96.6953 9.72159C95.2294 9.72159 94.0277 10.5739 93.5504 12.1932H93.4141V9.90909H89.8942V23ZM112.317 9.90909H108.474L105.763 19.2756H105.627L102.908 9.90909H99.0732L103.65 23H107.741L112.317 9.90909ZM119.696 23.2557C122.935 23.2557 125.116 21.679 125.628 19.25L122.27 19.0284C121.903 20.0256 120.966 20.5455 119.756 20.5455C117.94 20.5455 116.79 19.3438 116.79 17.392V17.3835H125.705V16.3864C125.705 11.9375 123.011 9.73864 119.551 9.73864C115.699 9.73864 113.202 12.4744 113.202 16.5142C113.202 20.6648 115.665 23.2557 119.696 23.2557ZM116.79 15.1335C116.866 13.642 118 12.4489 119.611 12.4489C121.188 12.4489 122.278 13.5739 122.287 15.1335H116.79ZM138.966 13.642C138.642 11.2301 136.699 9.73864 133.392 9.73864C130.043 9.73864 127.835 11.2898 127.844 13.8125C127.835 15.7727 129.071 17.0426 131.628 17.554L133.895 18.0057C135.037 18.2358 135.557 18.6534 135.574 19.3097C135.557 20.0852 134.713 20.6392 133.443 20.6392C132.148 20.6392 131.287 20.0852 131.065 19.0199L127.494 19.2074C127.835 21.7131 129.966 23.2557 133.435 23.2557C136.827 23.2557 139.256 21.5256 139.264 18.9432C139.256 17.0511 138.02 15.9176 135.48 15.3977L133.111 14.9205C131.892 14.6562 131.44 14.2386 131.449 13.608C131.44 12.8239 132.327 12.3125 133.452 12.3125C134.713 12.3125 135.463 13.0028 135.642 13.8466L138.966 13.642ZM148.513 9.90909H146.05V6.77273H142.42V9.90909H140.63V12.6364H142.42V19.4545C142.403 22.0199 144.15 23.2898 146.783 23.179C147.721 23.1449 148.386 22.9574 148.752 22.8381L148.181 20.1364C148.002 20.1705 147.619 20.2557 147.278 20.2557C146.553 20.2557 146.05 19.983 146.05 18.9773V12.6364H148.513V9.90909Z" fill="#414141"/>
<path d="M19.5391 11.6368L27.0953 11.076C27.6611 11.034 28.168 11.3255 28.2275 11.7274L29.0299 17.0944C29.1752 18.0664 27.5935 18.6761 26.523 18.0606L21.0254 14.8992L18.7315 13.5801C17.661 12.9645 18.1707 11.7384 19.5391 11.6368Z" fill="white"/>
<path d="M25.3794 13.6599C24.5152 13.2291 23.2914 13.3458 22.6449 13.9217L18.1123 18.2503L11.7065 15.0391C10.8468 14.6082 9.62453 14.7229 8.97789 15.2958C8.97634 15.2978 8.97486 15.2988 8.97184 15.3008L3.39691 20.636C2.74577 21.2068 2.91348 22.0222 3.77011 22.4561C4.09793 22.6222 4.4968 22.7148 4.90777 22.7198V22.75C5.50453 22.7389 6.06204 22.5456 6.41863 22.2265L10.9511 17.8979L17.357 21.1092C18.2167 21.54 19.439 21.4253 20.0856 20.8524C20.0871 20.8504 20.0886 20.8494 20.0917 20.8474L25.7724 15.4819C26.4189 14.9062 26.2436 14.0908 25.3794 13.6599Z" fill="white"/>
</svg>
